<svg xmlns="http://www.w3.org/2000/svg" viewBox="0 0 500 500"><title>logotype</title><path d="M493.53,486.78,285.64,279.55a9.85,9.85,0,0,0-6.71-2.67H229.41a5.1,5.1,0,0,0-3.48,8.71L429.27,491.06c2.91,2.94,8,2.94,8,2.94H489A5.07,5.07,0,0,0,493.53,486.78Z" fill="#333"/><path d="M6.47,486.77,223,8.94A5,5,0,0,1,227.51,6h45A5,5,0,0,1,277,9L493.53,486.78A5.07,5.07,0,0,1,489,494H437.31a10,10,0,0,1-9.09-5.86L250.05,96.44,75.72,488.07A10,10,0,0,1,66.58,494H11A5.08,5.08,0,0,1,6.47,486.77Z" fill="#1a1a1a"/></svg>