<svg xmlns="http://www.w3.org/2000/svg" viewBox="0 0 417.76 425.2"><defs><style>.cls-1{fill:#0c0c19;}</style></defs><title>brand-dark</title><g id="Layer_2" data-name="Layer 2"><g id="brand-dark"><g id="brand-bold-dark"><path class="cls-1" d="M257.41,425.2c-6.24,0-13.38-4.68-15.88-10.4L171.75,254.87c-2.49-5.72.57-10.37,6.81-10.34l36.28.19c6.23,0,13.41,4.72,15.94,10.41l54.37,122.16c2.53,5.7,9.71,10.36,16,10.36h30.5c6.24,0,9.21-4.64,6.62-10.31L204.67,85.69c-2.6-5.67-6.88-5.68-9.51,0l-136,291.72C56.47,383,49.21,387.65,43,387.65H7.52c-6.24,0-9.19-4.62-6.56-10.28L171.73,10.28C174.36,4.63,181.61,0,187.85,0H210.7c6.24,0,13.5,4.62,16.14,10.27l130.1,278.66c2.64,5.65,7,14.89,9.65,20.52L416.53,415c2.66,5.64.87,10.25-4,10.25H257.41Z"/></g></g></g></svg>